<?xml version="1.0" encoding="UTF-8"?>
<!-- Generator: Adobe Illustrator 21.0.0, SVG Export Plug-In . SVG Version: 6.00 Build 0)  -->
<svg version="1.0" id="Calque_1" xmlns="http://www.w3.org/2000/svg" xmlns:xlink="http://www.w3.org/1999/xlink" x="0px" y="0px" viewBox="0 0 90 30" style="enable-background:new 0 0 90 30;" xml:space="preserve">
<style type="text/css">
	.st0{fill:#C8B7A2;}
	.st1{fill:#8D8785;}
	.st2{fill:#B9B0AA;}
	.st3{clip-path:url(#XMLID_2_);fill:url(#XMLID_3_);}
	.st4{clip-path:url(#XMLID_4_);fill:url(#XMLID_5_);}
	.st5{clip-path:url(#XMLID_6_);fill:url(#XMLID_7_);}
	.st6{clip-path:url(#XMLID_8_);fill:url(#XMLID_9_);}
	.st7{clip-path:url(#XMLID_10_);fill:url(#XMLID_11_);}
</style>
<g id="XMLID_15_">
	<path id="XMLID_39_" class="st0" d="M25.8,5.9c1.4,0,2.4-0.9,2.4-2V2c0-1.1-1.1-2-2.4-2c-1.4,0-2.4,0.9-2.4,2v1.9   C23.3,5,24.4,5.9,25.8,5.9 M28.4,6.4h-4.6c-1.1,0-2.1,0.8-2.1,1.8v9.9c0,0.8,0.6,1.4,1.3,1.7l0.5,8.6c0,0.7,0.6,1.2,1.4,1.2h2.2   c0.8,0,1.4-0.6,1.4-1.2l0.5-8.6c0.8-0.3,1.3-0.9,1.3-1.7V8.2C30.5,7.2,29.6,6.4,28.4,6.4"/>
	<path id="XMLID_36_" class="st1" d="M4.3,5.9c1.3,0,2.4-0.9,2.4-2V2c0-1.1-1.1-2-2.4-2C3,0,1.9,0.9,1.9,2v1.9C1.9,5,3,5.9,4.3,5.9    M6.7,6.4H2.1C0.9,6.4,0,7.2,0,8.2V18c0,0.8,0.6,1.4,1.3,1.7l0.5,8.6c0,0.7,0.6,1.2,1.4,1.2h2.2c0.8,0,1.4-0.6,1.4-1.2l0.5-8.6   c0.8-0.3,1.3-0.9,1.3-1.7V8.2C8.7,7.2,7.8,6.4,6.7,6.4"/>
	<path id="XMLID_33_" class="st2" d="M15.2,5.9c1.3,0,2.4-0.9,2.4-2V2c0-1.1-1.1-2-2.4-2c-1.4,0-2.4,0.9-2.4,2v1.9   C12.8,5,13.8,5.9,15.2,5.9 M17.5,6.4h-4.6c-1.1,0-2.1,0.8-2.1,1.8V18c0,0.8,0.6,1.4,1.3,1.7l0.5,8.6c0,0.7,0.6,1.2,1.4,1.2h2.2   c0.8,0,1.4-0.6,1.4-1.2l0.5-8.6c0.8-0.3,1.3-0.9,1.3-1.7V8.2C19.5,7.2,18.6,6.4,17.5,6.4"/>
	<g id="XMLID_30_">
		<defs>
			<path id="XMLID_31_" d="M28.9,6.4c-0.1,0-0.2,0-0.2,0c1,0.1,1.8,0.9,1.8,1.8v9.9c0,0.8-0.6,1.4-1.3,1.7l-0.5,8l0,0.6     c0,0.7,0.6,1.2,1.4,1.2h2.2c0.8,0,1.4-0.6,1.4-1.2l0.5-8.6c0.8-0.3,1.3-0.9,1.3-1.7V8.2c0-1-0.9-1.8-2.1-1.8H28.9z"/>
		</defs>
		<clipPath id="XMLID_2_">
			<use xlink:href="#XMLID_31_" style="overflow:visible;"/>
		</clipPath>
		
			<linearGradient id="XMLID_3_" gradientUnits="userSpaceOnUse" x1="40.1572" y1="739.3085" x2="41.1856" y2="739.3085" gradientTransform="matrix(0 29.8071 29.8071 0 -22004.502 -1196.1334)">
			<stop offset="0" style="stop-color:#E2D1B5"/>
			<stop offset="0.2229" style="stop-color:#D4BC96"/>
			<stop offset="0.5673" style="stop-color:#C2A16C"/>
			<stop offset="0.8382" style="stop-color:#B68F53"/>
			<stop offset="1" style="stop-color:#B28949"/>
		</linearGradient>
		<rect id="XMLID_32_" x="28.7" y="6.4" class="st3" width="6.9" height="23.2"/>
	</g>
	<g id="XMLID_27_">
		<defs>
			<path id="XMLID_28_" d="M28.8,2v1.9c0,1.1,1.1,2,2.4,2c1.4,0,2.4-0.9,2.4-2V2c0-1.1-1.1-2-2.4-2C29.9,0,28.8,0.9,28.8,2"/>
		</defs>
		<clipPath id="XMLID_4_">
			<use xlink:href="#XMLID_28_" style="overflow:visible;"/>
		</clipPath>
		
			<linearGradient id="XMLID_5_" gradientUnits="userSpaceOnUse" x1="40.1568" y1="739.3071" x2="41.1852" y2="739.3071" gradientTransform="matrix(0 29.8039 29.8039 0 -22003.0566 -1195.994)">
			<stop offset="0" style="stop-color:#E2D1B5"/>
			<stop offset="0.2229" style="stop-color:#D4BC96"/>
			<stop offset="0.5673" style="stop-color:#C2A16C"/>
			<stop offset="0.8382" style="stop-color:#B68F53"/>
			<stop offset="1" style="stop-color:#B28949"/>
		</linearGradient>
		<rect id="XMLID_29_" x="28.8" y="0" class="st4" width="4.9" height="5.9"/>
	</g>
	<g id="XMLID_24_">
		<defs>
			<path id="XMLID_25_" d="M41.7,7.9v16.3c0,3.7,2.6,5.9,7,5.9c4.4,0,6.9-2.1,6.9-5.9V21h-4.4v2.9c0,1.9-0.9,2.8-2.5,2.8     c-1.6,0-2.6-0.9-2.6-2.8V8.1c0-1.9,0.9-2.8,2.6-2.8c1.6,0,2.5,0.9,2.5,2.8V11h4.4V7.9c0-3.7-2.5-5.9-6.9-5.9     C44.3,2,41.7,4.1,41.7,7.9"/>
		</defs>
		<clipPath id="XMLID_6_">
			<use xlink:href="#XMLID_25_" style="overflow:visible;"/>
		</clipPath>
		
			<linearGradient id="XMLID_7_" gradientUnits="userSpaceOnUse" x1="39.7952" y1="738.8818" x2="40.8235" y2="738.8818" gradientTransform="matrix(0 27.2329 27.2329 0 -20073.2148 -1081.7437)">
			<stop offset="0" style="stop-color:#E2D1B5"/>
			<stop offset="0.2229" style="stop-color:#D4BC96"/>
			<stop offset="0.5673" style="stop-color:#C2A16C"/>
			<stop offset="0.8382" style="stop-color:#B68F53"/>
			<stop offset="1" style="stop-color:#B28949"/>
		</linearGradient>
		<rect id="XMLID_26_" x="41.7" y="2" class="st5" width="13.9" height="28"/>
	</g>
	<g id="XMLID_21_">
		<defs>
			<path id="XMLID_22_" d="M69.2,2.3l-3,17.1c-0.4,1.9-0.6,5.3-0.6,5.3h-0.1c0,0-0.3-3.4-0.6-5.3L62,2.3h-4.4L63,29.7h5.1l5.5-27.3     H69.2z"/>
		</defs>
		<clipPath id="XMLID_8_">
			<use xlink:href="#XMLID_22_" style="overflow:visible;"/>
		</clipPath>
		
			<linearGradient id="XMLID_9_" gradientUnits="userSpaceOnUse" x1="39.6922" y1="738.7737" x2="40.7206" y2="738.7737" gradientTransform="matrix(0 26.5801 26.5801 0 -19571.0566 -1052.6924)">
			<stop offset="0" style="stop-color:#E2D1B5"/>
			<stop offset="0.2229" style="stop-color:#D4BC96"/>
			<stop offset="0.5673" style="stop-color:#C2A16C"/>
			<stop offset="0.8382" style="stop-color:#B68F53"/>
			<stop offset="1" style="stop-color:#B28949"/>
		</linearGradient>
		<rect id="XMLID_23_" x="57.6" y="2.3" class="st6" width="16" height="27.3"/>
	</g>
	<g id="XMLID_16_">
		<defs>
			<path id="XMLID_17_" d="M80.9,11.5c0.3-1.9,0.6-5.3,0.6-5.3h0.1c0,0,0.3,3.4,0.6,5.3l1.2,8.2h-3.8L80.9,11.5z M78.6,2.3     l-5.1,27.3H78l1.1-7H84l1.1,7h4.5L84.4,2.3H78.6z"/>
		</defs>
		<clipPath id="XMLID_10_">
			<use xlink:href="#XMLID_17_" style="overflow:visible;"/>
		</clipPath>
		
			<linearGradient id="XMLID_11_" gradientUnits="userSpaceOnUse" x1="39.6922" y1="738.7902" x2="40.7206" y2="738.7902" gradientTransform="matrix(0 26.5801 26.5801 0 -19555.5801 -1052.6924)">
			<stop offset="0" style="stop-color:#E2D1B5"/>
			<stop offset="0.2229" style="stop-color:#D4BC96"/>
			<stop offset="0.5673" style="stop-color:#C2A16C"/>
			<stop offset="0.8382" style="stop-color:#B68F53"/>
			<stop offset="1" style="stop-color:#B28949"/>
		</linearGradient>
		<rect id="XMLID_20_" x="73.5" y="2.3" class="st7" width="16" height="27.3"/>
	</g>
</g>
</svg>